<svg xmlns="http://www.w3.org/2000/svg" xmlns:xlink="http://www.w3.org/1999/xlink" width="512" height="512" x="0" y="0" viewBox="0 0 46.729 46.729" style="enable-background:new 0 0 512 512" xml:space="preserve"><g><path d="m23.823 14.202 4.742-.774c1.703 1.126 3.846 1.745 6.057 1.745 5.238 0 9.502-3.403 9.502-7.586C44.124 3.403 39.86 0 34.622 0c-5.24 0-9.504 3.403-9.504 7.587 0 1.059.271 2.083.81 3.054l-2.551 2.727a.5.5 0 0 0 .446.834zm6.67-10.622h8.129a1 1 0 1 1 0 2h-8.129a1 1 0 1 1 0-2zm0 3.251h8.129a1 1 0 1 1 0 2.001h-8.129a1.001 1.001 0 1 1 0-2.001zm0 3.251h8.129a1 1 0 1 1 0 2.001h-8.129a1.001 1.001 0 1 1 0-2.001zm13.647 34.35a2.294 2.294 0 0 1-2.296 2.297H4.884a2.296 2.296 0 0 1-2.296-2.297c0-1.027.681-1.889 1.612-2.18a2.165 2.165 0 0 1-.492-1.367v-6.23a2.2 2.2 0 0 1 2.2-2.201h.769a5.095 5.095 0 0 1-1.325-3.429 5.117 5.117 0 0 1 10.235 0 5.095 5.095 0 0 1-1.326 3.429h.734c.824 0 1.537.46 1.912 1.133a2.192 2.192 0 0 1 1.914-1.133h.769a5.09 5.09 0 0 1-1.325-3.429 5.117 5.117 0 0 1 10.233 0 5.099 5.099 0 0 1-1.325 3.429h.733c.826 0 1.537.46 1.914 1.133a2.192 2.192 0 0 1 1.912-1.133h.771a5.086 5.086 0 0 1-1.326-3.429 5.117 5.117 0 0 1 10.233 0 5.099 5.099 0 0 1-1.325 3.429h.733c1.217 0 2.2.985 2.2 2.201v6.23c0 .521-.188.992-.491 1.367a2.288 2.288 0 0 1 1.613 2.18zM2.607 18.414a1.5 1.5 0 0 1 1.5-1.5h2.488v-4.203a2.5 2.5 0 0 1 2.501-2.5h.874a5.787 5.787 0 0 1-1.507-3.896 5.816 5.816 0 0 1 11.629 0c0 1.5-.573 2.863-1.507 3.895h.833a2.5 2.5 0 0 1 2.502 2.501v4.203h2.527a1.5 1.5 0 1 1 0 3.001h-.396l-.32 1.912c-.117-.005-.23-.024-.35-.024a7.231 7.231 0 0 0-6.457 3.985 7.23 7.23 0 0 0-6.456-3.985 7.206 7.206 0 0 0-5.266 2.292l-.699-4.182h-.397a1.498 1.498 0 0 1-1.499-1.499z" fill="#ffffff" opacity="1" data-original="#000000" data-darkreader-inline-fill="" style="--darkreader-inline-fill: #181a1b;"></path></g></svg>